<?xml version="1.0" encoding="utf-8"?>
<svg version="1.1" xmlns:xlink="http://www.w3.org/1999/xlink" width="13px" height="13px" viewBox="75 195  13 13" xmlns="http://www.w3.org/2000/svg">
  <path d="M 81.5 195  C 85.14 195  88 197.86  88 201.5  C 88 205.14  85.14 208  81.5 208  C 77.86 208  75 205.14  75 201.5  C 75 197.86  77.86 195  81.5 195  Z " fill-rule="nonzero" fill="#ffffff" stroke="none" />
  <path d="M 81.5 195.5  C 84.86 195.5  87.5 198.14  87.5 201.5  C 87.5 204.86  84.86 207.5  81.5 207.5  C 78.14 207.5  75.5 204.86  75.5 201.5  C 75.5 198.14  78.14 195.5  81.5 195.5  Z " stroke-width="1" stroke="#797979" fill="none" />
  <path d="M 81.5 204.75  C 79.68 204.75  78.25 203.32  78.25 201.5  C 78.25 199.68  79.68 198.25  81.5 198.25  C 83.32 198.25  84.75 199.68  84.75 201.5  C 84.75 203.32  83.32 204.75  81.5 204.75  " fill-rule="nonzero" fill="#797979" stroke="none" />
</svg>