<?xml version="1.0" encoding="utf-8"?>
<svg version="1.1" xmlns:xlink="http://www.w3.org/1999/xlink" width="13px" height="13px" viewBox="75 343  13 13" xmlns="http://www.w3.org/2000/svg">
  <path d="M 81.5 343  C 85.14 343  88 345.86  88 349.5  C 88 353.14  85.14 356  81.5 356  C 77.86 356  75 353.14  75 349.5  C 75 345.86  77.86 343  81.5 343  Z " fill-rule="nonzero" fill="#ffffff" stroke="none" />
  <path d="M 81.5 343.5  C 84.86 343.5  87.5 346.14  87.5 349.5  C 87.5 352.86  84.86 355.5  81.5 355.5  C 78.14 355.5  75.5 352.86  75.5 349.5  C 75.5 346.14  78.14 343.5  81.5 343.5  Z " stroke-width="1" stroke="#797979" fill="none" />
  <path d="M 81.5 352.75  C 79.68 352.75  78.25 351.32  78.25 349.5  C 78.25 347.68  79.68 346.25  81.5 346.25  C 83.32 346.25  84.75 347.68  84.75 349.5  C 84.75 351.32  83.32 352.75  81.5 352.75  " fill-rule="nonzero" fill="#797979" stroke="none" />
</svg>