<?xml version="1.0" encoding="utf-8"?>
<svg version="1.1" xmlns:xlink="http://www.w3.org/1999/xlink" width="12px" height="12px" viewBox="227 108  12 12" xmlns="http://www.w3.org/2000/svg">
  <path d="M 233 108  C 236.36 108  239 110.64  239 114  C 239 117.36  236.36 120  233 120  C 229.64 120  227 117.36  227 114  C 227 110.64  229.64 108  233 108  Z " fill-rule="nonzero" fill="#ffffff" stroke="none" />
  <path d="M 233 108.5  C 236.08 108.5  238.5 110.92  238.5 114  C 238.5 117.08  236.08 119.5  233 119.5  C 229.92 119.5  227.5 117.08  227.5 114  C 227.5 110.92  229.92 108.5  233 108.5  Z " stroke-width="1" stroke="#797979" fill="none" />
  <path d="M 233 117  C 231.32 117  230 115.68  230 114  C 230 112.32  231.32 111  233 111  C 234.68 111  236 112.32  236 114  C 236 115.68  234.68 117  233 117  " fill-rule="nonzero" fill="#797979" stroke="none" />
</svg>