<?xml version="1.0" encoding="utf-8"?>
<svg version="1.1" xmlns:xlink="http://www.w3.org/1999/xlink" width="12px" height="12px" viewBox="177 180  12 12" xmlns="http://www.w3.org/2000/svg">
  <path d="M 183 180  C 186.36 180  189 182.64  189 186  C 189 189.36  186.36 192  183 192  C 179.64 192  177 189.36  177 186  C 177 182.64  179.64 180  183 180  Z " fill-rule="nonzero" fill="#ffffff" stroke="none" />
  <path d="M 183 180.5  C 186.08 180.5  188.5 182.92  188.5 186  C 188.5 189.08  186.08 191.5  183 191.5  C 179.92 191.5  177.5 189.08  177.5 186  C 177.5 182.92  179.92 180.5  183 180.5  Z " stroke-width="1" stroke="#797979" fill="none" />
  <path d="M 183 189  C 181.32 189  180 187.68  180 186  C 180 184.32  181.32 183  183 183  C 184.68 183  186 184.32  186 186  C 186 187.68  184.68 189  183 189  " fill-rule="nonzero" fill="#797979" stroke="none" />
</svg>