<?xml version="1.0" encoding="utf-8"?>
<svg version="1.1" xmlns:xlink="http://www.w3.org/1999/xlink" width="12px" height="12px" viewBox="319 180  12 12" xmlns="http://www.w3.org/2000/svg">
  <path d="M 325 180  C 328.36 180  331 182.64  331 186  C 331 189.36  328.36 192  325 192  C 321.64 192  319 189.36  319 186  C 319 182.64  321.64 180  325 180  Z " fill-rule="nonzero" fill="#ffffff" stroke="none" />
  <path d="M 325 180.5  C 328.08 180.5  330.5 182.92  330.5 186  C 330.5 189.08  328.08 191.5  325 191.5  C 321.92 191.5  319.5 189.08  319.5 186  C 319.5 182.92  321.92 180.5  325 180.5  Z " stroke-width="1" stroke="#797979" fill="none" />
  <path d="M 325 189  C 323.32 189  322 187.68  322 186  C 322 184.32  323.32 183  325 183  C 326.68 183  328 184.32  328 186  C 328 187.68  326.68 189  325 189  " fill-rule="nonzero" fill="#797979" stroke="none" />
</svg>