<?xml version="1.0" encoding="utf-8"?>
<svg version="1.1" xmlns:xlink="http://www.w3.org/1999/xlink" width="12px" height="12px" viewBox="79 449  12 12" xmlns="http://www.w3.org/2000/svg">
  <path d="M 85 449  C 88.36 449  91 451.64  91 455  C 91 458.36  88.36 461  85 461  C 81.64 461  79 458.36  79 455  C 79 451.64  81.64 449  85 449  Z " fill-rule="nonzero" fill="#ffffff" stroke="none" />
  <path d="M 85 449.5  C 88.08 449.5  90.5 451.92  90.5 455  C 90.5 458.08  88.08 460.5  85 460.5  C 81.92 460.5  79.5 458.08  79.5 455  C 79.5 451.92  81.92 449.5  85 449.5  Z " stroke-width="1" stroke="#797979" fill="none" />
  <path d="M 85 458  C 83.32 458  82 456.68  82 455  C 82 453.32  83.32 452  85 452  C 86.68 452  88 453.32  88 455  C 88 456.68  86.68 458  85 458  " fill-rule="nonzero" fill="#797979" stroke="none" />
</svg>